{
    "asset" : {
        "generator" : "Khronos glTF Blender I/O v1.0.5",
        "version" : "2.0"
    },
    "scene" : 0,
    "scenes" : [
        {
            "name" : "Scene",
            "nodes" : [
                0
            ]
        }
    ],
    "nodes" : [
        {
            "mesh" : 0,
            "name" : "granite",
            "rotation" : [
                0.7071068286895752,
                0,
                0,
                0.7071067094802856
            ]
        }
    ],
    "meshes" : [
        {
            "name" : "granite",
            "primitives" : [
                {
                    "attributes" : {
                        "POSITION" : 0,
                        "NORMAL" : 1,
                        "TEXCOORD_0" : 2
                    },
                    "indices" : 3
                }
            ]
        }
    ],
    "accessors" : [
        {
            "bufferView" : 0,
            "componentType" : 5126,
            "count" : 1339,
            "max" : [
                0.6905909776687622,
                0.606827974319458,
                0.0015510000521317124
            ],
            "min" : [
                -0.8404219746589661,
                -0.7129930257797241,
                -1.0384459495544434
            ],
            "type" : "VEC3"
        },
        {
            "bufferView" : 1,
            "componentType" : 5126,
            "count" : 1339,
            "type" : "VEC3"
        },
        {
            "bufferView" : 2,
            "componentType" : 5126,
            "count" : 1339,
            "type" : "VEC2"
        },
        {
            "bufferView" : 3,
            "componentType" : 5123,
            "count" : 7044,
            "type" : "SCALAR"
        }
    ],
    "bufferViews" : [
        {
            "buffer" : 0,
            "byteLength" : 16068,
            "byteOffset" : 0
        },
        {
            "buffer" : 0,
            "byteLength" : 16068,
            "byteOffset" : 16068
        },
        {
            "buffer" : 0,
            "byteLength" : 10712,
            "byteOffset" : 32136
        },
        {
            "buffer" : 0,
            "byteLength" : 14088,
            "byteOffset" : 42848
        }
    ],
    "buffers" : [
        {
            "byteLength" : 56936,
            "uri" : "data:application/octet-stream;base64,"
        }
    ]
}
