{
    "asset" : {
        "generator" : "Khronos glTF Blender I/O v1.0.5",
        "version" : "2.0"
    },
    "scene" : 0,
    "scenes" : [
        {
            "name" : "Scene",
            "nodes" : [
                0
            ]
        }
    ],
    "nodes" : [
        {
            "mesh" : 0,
            "name" : "volga",
            "rotation" : [
                0.7071068286895752,
                0,
                0,
                0.7071067094802856
            ]
        }
    ],
    "meshes" : [
        {
            "name" : "volga",
            "primitives" : [
                {
                    "attributes" : {
                        "POSITION" : 0,
                        "NORMAL" : 1,
                        "TEXCOORD_0" : 2
                    },
                    "indices" : 3
                }
            ]
        }
    ],
    "accessors" : [
        {
            "bufferView" : 0,
            "componentType" : 5126,
            "count" : 5440,
            "max" : [
                0.5980910062789917,
                1.4933780431747437,
                0.002759000053629279
            ],
            "min" : [
                -0.5980910062789917,
                -1.5512210130691528,
                -1.2058900594711304
            ],
            "type" : "VEC3"
        },
        {
            "bufferView" : 1,
            "componentType" : 5126,
            "count" : 5440,
            "type" : "VEC3"
        },
        {
            "bufferView" : 2,
            "componentType" : 5126,
            "count" : 5440,
            "type" : "VEC2"
        },
        {
            "bufferView" : 3,
            "componentType" : 5123,
            "count" : 15963,
            "type" : "SCALAR"
        }
    ],
    "bufferViews" : [
        {
            "buffer" : 0,
            "byteLength" : 65280,
            "byteOffset" : 0
        },
        {
            "buffer" : 0,
            "byteLength" : 65280,
            "byteOffset" : 65280
        },
        {
            "buffer" : 0,
            "byteLength" : 43520,
            "byteOffset" : 130560
        },
        {
            "buffer" : 0,
            "byteLength" : 31926,
            "byteOffset" : 174080
        }
    ],
    "buffers" : [
        {
            "byteLength" : 206008,
            "uri" : "data:application/octet-stream;base64,"
        }
    ]
}
